<mxfile host="app.diagrams.net" agent="Mozilla/5.0 (Windows NT 10.0; Win64; x64) AppleWebKit/537.36 (KHTML, like Gecko) Chrome/135.0.0.0 Safari/537.36" version="26.2.14">
  <diagram name="Page-1" id="pshaH1K9JeJHdic0O4yf">
    <mxGraphModel dx="1330" dy="479" grid="1" gridSize="10" guides="1" tooltips="1" connect="1" arrows="1" fold="1" page="1" pageScale="1" pageWidth="850" pageHeight="1100" math="0" shadow="0">
      <root>
        <mxCell id="0" />
        <mxCell id="1" parent="0" />
        <mxCell id="P140MuK1kSN8gCPDr1sS-1" value="Customer" style="swimlane;whiteSpace=wrap;html=1;" parent="1" vertex="1">
          <mxGeometry x="150" width="210" height="480" as="geometry" />
        </mxCell>
        <mxCell id="P140MuK1kSN8gCPDr1sS-5" style="edgeStyle=orthogonalEdgeStyle;rounded=0;orthogonalLoop=1;jettySize=auto;html=1;exitX=0.5;exitY=1;exitDx=0;exitDy=0;" parent="P140MuK1kSN8gCPDr1sS-1" source="P140MuK1kSN8gCPDr1sS-4" edge="1">
          <mxGeometry relative="1" as="geometry">
            <mxPoint x="95" y="100" as="targetPoint" />
          </mxGeometry>
        </mxCell>
        <mxCell id="P140MuK1kSN8gCPDr1sS-4" value="" style="ellipse;html=1;shape=endState;strokeColor=none;" parent="P140MuK1kSN8gCPDr1sS-1" vertex="1">
          <mxGeometry x="80" y="50" width="30" height="30" as="geometry" />
        </mxCell>
        <mxCell id="P140MuK1kSN8gCPDr1sS-6" value="Place Order" style="rounded=1;whiteSpace=wrap;html=1;" parent="P140MuK1kSN8gCPDr1sS-1" vertex="1">
          <mxGeometry x="40" y="100" width="120" height="60" as="geometry" />
        </mxCell>
        <mxCell id="P140MuK1kSN8gCPDr1sS-15" value="Pay&amp;nbsp;" style="rounded=1;whiteSpace=wrap;html=1;" parent="P140MuK1kSN8gCPDr1sS-1" vertex="1">
          <mxGeometry x="45" y="280" width="120" height="60" as="geometry" />
        </mxCell>
        <mxCell id="P140MuK1kSN8gCPDr1sS-29" value="Provide details" style="rounded=1;whiteSpace=wrap;html=1;" parent="P140MuK1kSN8gCPDr1sS-1" vertex="1">
          <mxGeometry x="45" y="180" width="120" height="60" as="geometry" />
        </mxCell>
        <mxCell id="P140MuK1kSN8gCPDr1sS-48" style="edgeStyle=orthogonalEdgeStyle;rounded=0;orthogonalLoop=1;jettySize=auto;html=1;exitX=0.25;exitY=1;exitDx=0;exitDy=0;entryX=0.2;entryY=-0.017;entryDx=0;entryDy=0;entryPerimeter=0;" parent="P140MuK1kSN8gCPDr1sS-1" source="P140MuK1kSN8gCPDr1sS-29" target="P140MuK1kSN8gCPDr1sS-15" edge="1">
          <mxGeometry relative="1" as="geometry" />
        </mxCell>
        <mxCell id="P140MuK1kSN8gCPDr1sS-2" value="System" style="swimlane;whiteSpace=wrap;html=1;" parent="1" vertex="1">
          <mxGeometry x="360" width="200" height="480" as="geometry" />
        </mxCell>
        <mxCell id="P140MuK1kSN8gCPDr1sS-8" value="Existing" style="rhombus;whiteSpace=wrap;html=1;" parent="P140MuK1kSN8gCPDr1sS-2" vertex="1">
          <mxGeometry x="10" y="240" width="170" height="40" as="geometry" />
        </mxCell>
        <mxCell id="P140MuK1kSN8gCPDr1sS-12" style="edgeStyle=orthogonalEdgeStyle;rounded=0;orthogonalLoop=1;jettySize=auto;html=1;exitX=0.5;exitY=1;exitDx=0;exitDy=0;exitPerimeter=0;entryX=0.865;entryY=0.4;entryDx=0;entryDy=0;entryPerimeter=0;" parent="P140MuK1kSN8gCPDr1sS-2" target="P140MuK1kSN8gCPDr1sS-8" edge="1">
          <mxGeometry relative="1" as="geometry">
            <mxPoint x="145" y="102" as="sourcePoint" />
            <mxPoint x="154.4" y="242" as="targetPoint" />
            <Array as="points">
              <mxPoint x="155" y="102" />
              <mxPoint x="155" y="250" />
              <mxPoint x="157" y="250" />
            </Array>
          </mxGeometry>
        </mxCell>
        <mxCell id="P140MuK1kSN8gCPDr1sS-11" value="existing product or a custom order" style="shape=note;size=20;whiteSpace=wrap;html=1;" parent="P140MuK1kSN8gCPDr1sS-2" vertex="1">
          <mxGeometry x="10" y="50" width="180" height="60" as="geometry" />
        </mxCell>
        <mxCell id="P140MuK1kSN8gCPDr1sS-17" value="Valid?" style="rhombus;whiteSpace=wrap;html=1;" parent="P140MuK1kSN8gCPDr1sS-2" vertex="1">
          <mxGeometry x="65" y="350" width="80" height="50" as="geometry" />
        </mxCell>
        <mxCell id="P140MuK1kSN8gCPDr1sS-23" value="No" style="text;html=1;align=center;verticalAlign=middle;whiteSpace=wrap;rounded=0;" parent="P140MuK1kSN8gCPDr1sS-2" vertex="1">
          <mxGeometry x="10" y="220" width="60" height="30" as="geometry" />
        </mxCell>
        <mxCell id="P140MuK1kSN8gCPDr1sS-26" value="Yes" style="text;html=1;align=center;verticalAlign=middle;whiteSpace=wrap;rounded=0;" parent="P140MuK1kSN8gCPDr1sS-2" vertex="1">
          <mxGeometry x="130" y="350" width="60" height="30" as="geometry" />
        </mxCell>
        <mxCell id="P140MuK1kSN8gCPDr1sS-19" value="Yes" style="text;html=1;align=center;verticalAlign=middle;whiteSpace=wrap;rounded=0;" parent="P140MuK1kSN8gCPDr1sS-2" vertex="1">
          <mxGeometry y="260" width="60" height="30" as="geometry" />
        </mxCell>
        <mxCell id="P140MuK1kSN8gCPDr1sS-3" value="Sales Staff" style="swimlane;whiteSpace=wrap;html=1;" parent="1" vertex="1">
          <mxGeometry x="560" width="200" height="480" as="geometry" />
        </mxCell>
        <mxCell id="P140MuK1kSN8gCPDr1sS-44" style="edgeStyle=orthogonalEdgeStyle;rounded=0;orthogonalLoop=1;jettySize=auto;html=1;exitX=0.5;exitY=1;exitDx=0;exitDy=0;entryX=0.5;entryY=0;entryDx=0;entryDy=0;" parent="P140MuK1kSN8gCPDr1sS-3" source="P140MuK1kSN8gCPDr1sS-25" target="P140MuK1kSN8gCPDr1sS-43" edge="1">
          <mxGeometry relative="1" as="geometry" />
        </mxCell>
        <mxCell id="P140MuK1kSN8gCPDr1sS-25" value="Provide Product" style="rounded=1;whiteSpace=wrap;html=1;" parent="P140MuK1kSN8gCPDr1sS-3" vertex="1">
          <mxGeometry x="40" y="190" width="120" height="60" as="geometry" />
        </mxCell>
        <mxCell id="P140MuK1kSN8gCPDr1sS-43" value="" style="ellipse;html=1;shape=endState;" parent="P140MuK1kSN8gCPDr1sS-3" vertex="1">
          <mxGeometry x="80" y="290" width="30" height="30" as="geometry" />
        </mxCell>
        <mxCell id="P140MuK1kSN8gCPDr1sS-24" style="edgeStyle=orthogonalEdgeStyle;rounded=0;orthogonalLoop=1;jettySize=auto;html=1;exitX=1;exitY=0.5;exitDx=0;exitDy=0;entryX=0;entryY=0.5;entryDx=0;entryDy=0;" parent="P140MuK1kSN8gCPDr1sS-3" edge="1">
          <mxGeometry relative="1" as="geometry">
            <mxPoint x="39" y="220" as="targetPoint" />
            <mxPoint x="-56" y="375" as="sourcePoint" />
            <Array as="points">
              <mxPoint x="40" y="374.75" />
            </Array>
          </mxGeometry>
        </mxCell>
        <mxCell id="P140MuK1kSN8gCPDr1sS-21" style="edgeStyle=orthogonalEdgeStyle;rounded=0;orthogonalLoop=1;jettySize=auto;html=1;exitX=1;exitY=0.75;exitDx=0;exitDy=0;entryX=0.5;entryY=0;entryDx=0;entryDy=0;" parent="1" source="P140MuK1kSN8gCPDr1sS-15" target="P140MuK1kSN8gCPDr1sS-17" edge="1">
          <mxGeometry relative="1" as="geometry" />
        </mxCell>
        <mxCell id="P140MuK1kSN8gCPDr1sS-22" style="edgeStyle=orthogonalEdgeStyle;rounded=0;orthogonalLoop=1;jettySize=auto;html=1;exitX=0;exitY=0.5;exitDx=0;exitDy=0;entryX=0.5;entryY=1;entryDx=0;entryDy=0;" parent="1" source="P140MuK1kSN8gCPDr1sS-17" target="P140MuK1kSN8gCPDr1sS-15" edge="1">
          <mxGeometry relative="1" as="geometry">
            <mxPoint x="240" y="285" as="targetPoint" />
          </mxGeometry>
        </mxCell>
        <mxCell id="P140MuK1kSN8gCPDr1sS-28" style="edgeStyle=orthogonalEdgeStyle;rounded=0;orthogonalLoop=1;jettySize=auto;html=1;exitX=0;exitY=0;exitDx=0;exitDy=0;entryX=1;entryY=0.5;entryDx=0;entryDy=0;" parent="1" source="P140MuK1kSN8gCPDr1sS-8" target="P140MuK1kSN8gCPDr1sS-29" edge="1">
          <mxGeometry relative="1" as="geometry">
            <mxPoint x="250" y="230" as="targetPoint" />
            <Array as="points">
              <mxPoint x="380" y="250" />
              <mxPoint x="380" y="210" />
            </Array>
          </mxGeometry>
        </mxCell>
        <mxCell id="P140MuK1kSN8gCPDr1sS-14" style="edgeStyle=orthogonalEdgeStyle;rounded=0;orthogonalLoop=1;jettySize=auto;html=1;exitX=0.5;exitY=1;exitDx=0;exitDy=0;entryX=1;entryY=0.5;entryDx=0;entryDy=0;" parent="1" source="P140MuK1kSN8gCPDr1sS-8" target="P140MuK1kSN8gCPDr1sS-15" edge="1">
          <mxGeometry relative="1" as="geometry">
            <mxPoint x="330" y="310" as="targetPoint" />
            <mxPoint x="465" y="280" as="sourcePoint" />
            <Array as="points">
              <mxPoint x="330" y="280" />
              <mxPoint x="330" y="310" />
            </Array>
          </mxGeometry>
        </mxCell>
        <mxCell id="P140MuK1kSN8gCPDr1sS-33" value="Sales Manager" style="swimlane;whiteSpace=wrap;html=1;" parent="1" vertex="1">
          <mxGeometry x="760" width="200" height="480" as="geometry" />
        </mxCell>
        <mxCell id="P140MuK1kSN8gCPDr1sS-36" value="Create Blueprint" style="rounded=1;whiteSpace=wrap;html=1;" parent="P140MuK1kSN8gCPDr1sS-33" vertex="1">
          <mxGeometry x="60" y="290" width="100" height="60" as="geometry" />
        </mxCell>
        <mxCell id="P140MuK1kSN8gCPDr1sS-7" style="edgeStyle=orthogonalEdgeStyle;rounded=0;orthogonalLoop=1;jettySize=auto;html=1;entryX=0.5;entryY=0;entryDx=0;entryDy=0;exitX=1;exitY=0.5;exitDx=0;exitDy=0;" parent="1" source="P140MuK1kSN8gCPDr1sS-6" target="P140MuK1kSN8gCPDr1sS-8" edge="1">
          <mxGeometry relative="1" as="geometry">
            <mxPoint x="429.5" y="250" as="targetPoint" />
            <mxPoint x="310" y="141" as="sourcePoint" />
          </mxGeometry>
        </mxCell>
        <mxCell id="400Im9otTxsyuypDUp9s-1" style="edgeStyle=orthogonalEdgeStyle;rounded=0;orthogonalLoop=1;jettySize=auto;html=1;exitX=0;exitY=0.25;exitDx=0;exitDy=0;entryX=1;entryY=0.5;entryDx=0;entryDy=0;" edge="1" parent="1" source="P140MuK1kSN8gCPDr1sS-36" target="P140MuK1kSN8gCPDr1sS-43">
          <mxGeometry relative="1" as="geometry" />
        </mxCell>
        <mxCell id="400Im9otTxsyuypDUp9s-8" value="" style="endArrow=classic;html=1;rounded=0;" edge="1" parent="1">
          <mxGeometry width="50" height="50" relative="1" as="geometry">
            <mxPoint x="600" y="340" as="sourcePoint" />
            <mxPoint x="820" y="340" as="targetPoint" />
            <Array as="points" />
          </mxGeometry>
        </mxCell>
      </root>
    </mxGraphModel>
  </diagram>
</mxfile>
